<svg xmlns="http://www.w3.org/2000/svg" viewBox="0 0 24 24" width="24" height="24" fill="currentColor">
  <path d="M12 .5C5.73.5.75 5.48.75 11.75c0 4.97 3.22 9.18 7.69 10.66.56.1.77-.24.77-.54 0-.27-.01-1-.02-1.95-3.13.68-3.79-1.51-3.79-1.51-.51-1.3-1.24-1.65-1.24-1.65-1.02-.7.08-.69.08-.69 1.12.08 1.71 1.15 1.71 1.15 1 .17 1.58-.78 1.58-.78.92-1.57 2.41-1.12 3-.86.09-.67.35-1.12.63-1.38-2.5-.28-5.13-1.25-5.13-5.56 0-1.23.44-2.24 1.16-3.03-.12-.28-.5-1.42.11-2.96 0 0 .95-.3 3.12 1.16a10.8 10.8 0 0 1 2.84-.38c.96 0 1.93.13 2.84.38 2.16-1.46 3.12-1.16 3.12-1.16.61 1.54.23 2.68.11 2.96.72.79 1.16 1.8 1.16 3.03 0 4.32-2.64 5.28-5.15 5.56.36.31.68.92.68 1.85 0 1.33-.01 2.41-.01 2.74 0 .3.21.65.78.54C19.03 20.92 22.25 16.72 22.25 11.75 22.25 5.48 17.27.5 12 .5z"/>
</svg>
